<?xml version="1.0" encoding="utf-8"?>
<!-- Generator: Adobe Illustrator 28.0.0, SVG Export Plug-In . SVG Version: 6.00 Build 0)  -->
<svg version="1.1" id="Layer_1" xmlns="http://www.w3.org/2000/svg" xmlns:xlink="http://www.w3.org/1999/xlink" x="0px" y="0px"
	 viewBox="0 0 126.6 104.4" style="enable-background:new 0 0 126.6 104.4;" xml:space="preserve">
<style type="text/css">
	.st0{display:none;}
	.st1{display:inline;fill:#28235C;}
	.st2{fill:#FCBF17;}
	.st3{fill:#F49819;}
</style>
<g class="st0">
	<path class="st1" d="M-224.4,62c0,4.3-0.8,8.3-2.4,12c-1.6,3.8-3.8,7-6.6,9.8c-2.8,2.8-6.1,5-9.8,6.6c-3.8,1.6-7.8,2.4-12,2.4
		c-3.2,0-6.3-0.5-9.2-1.4c-2.9-0.9-5.6-2.2-8-3.9v22.3c0,1.2-0.2,2.3-0.6,3.2c-0.4,0.9-0.9,1.6-1.5,2.3c-0.7,0.6-1.4,1-2.2,1.3
		c-0.8,0.3-1.7,0.4-2.5,0.4c-0.8,0-1.7-0.1-2.5-0.4c-0.8-0.3-1.6-0.7-2.2-1.3c-0.6-0.6-1.1-1.4-1.5-2.3c-0.4-0.9-0.6-2-0.6-3.2V62
		c0-2.8,0.4-5.6,1.1-8.2c0.7-2.6,1.8-5.1,3.1-7.3c1.3-2.3,2.9-4.4,4.9-6.2c1.9-1.9,4-3.5,6.2-4.8c2.3-1.3,4.7-2.4,7.3-3.1
		c2.6-0.7,5.3-1.1,8.2-1.1c2.8,0,5.6,0.4,8.2,1.1c2.6,0.7,5.1,1.8,7.3,3.1c2.3,1.3,4.4,2.9,6.3,4.8c1.9,1.9,3.5,4,4.9,6.2
		c1.3,2.3,2.4,4.7,3.1,7.3L-224.4,62z M-238.1,62c0-2.4-0.4-4.6-1.3-6.7c-0.9-2.1-2.2-3.9-3.7-5.5c-1.6-1.5-3.4-2.8-5.5-3.7
		c-2.1-0.9-4.3-1.4-6.7-1.4c-2.4,0-4.6,0.4-6.7,1.3c-2.1,0.9-3.9,2.1-5.5,3.7c-1.6,1.6-2.8,3.4-3.8,5.5c-0.9,2.1-1.4,4.3-1.4,6.7
		c0,2.4,0.5,4.6,1.4,6.7c0.9,2.1,2.2,3.9,3.8,5.5c1.5,1.6,3.4,2.8,5.5,3.7c2.1,0.9,4.3,1.4,6.7,1.4c2.4,0,4.6-0.5,6.7-1.4
		c2.1-0.9,3.9-2.1,5.5-3.7c1.5-1.6,2.8-3.4,3.7-5.5L-238.1,62z"/>
	<path class="st1" d="M-174.9,38.4c0,0.8-0.1,1.7-0.4,2.5c-0.3,0.8-0.7,1.5-1.3,2.2c-0.6,0.7-1.4,1.2-2.3,1.5
		c-0.9,0.4-2,0.6-3.2,0.6c-1.9,0-3.6,0.4-5.3,1c-1.7,0.7-3.2,1.7-4.4,3c-1.3,1.3-2.2,2.7-3,4.4c-0.7,1.7-1.1,3.4-1.1,5.4v27.5
		c0,1.2-0.2,2.3-0.6,3.1c-0.4,0.9-0.9,1.7-1.5,2.3c-0.6,0.6-1.3,1.1-2.2,1.4c-0.8,0.3-1.6,0.4-2.5,0.4c-0.8,0-1.7-0.1-2.5-0.4
		c-0.8-0.3-1.6-0.8-2.2-1.4c-0.6-0.6-1.1-1.3-1.5-2.3c-0.4-0.9-0.6-1.9-0.6-3.1V59c0-3.8,0.7-7.3,2.2-10.7c1.4-3.3,3.3-6.2,5.9-8.7
		c2.5-2.5,5.4-4.5,8.7-5.9c3.3-1.4,6.8-2.1,10.6-2.1c1.2,0,2.3,0.2,3.2,0.6c0.9,0.4,1.6,0.9,2.3,1.5c0.6,0.7,1,1.4,1.3,2.2
		L-174.9,38.4z"/>
	<path class="st1" d="M-106.5,62.6c0,0.8-0.3,1.6-0.7,2.4c-0.4,0.8-0.9,1.5-1.5,2.2c-0.6,0.7-1.3,1.2-2.2,1.5
		c-0.8,0.4-1.7,0.6-2.5,0.6h-39.9c0.7,1.5,1.5,2.9,2.7,4.2c1.1,1.3,2.3,2.4,3.7,3.3c1.4,0.9,2.9,1.6,4.5,2.1c1.6,0.5,3.3,0.8,5,0.8
		h16.3c1.2,0,2.3,0.2,3.2,0.6c0.9,0.4,1.6,0.9,2.3,1.5c0.6,0.7,1,1.4,1.3,2.2c0.3,0.8,0.4,1.6,0.4,2.5c0,0.8-0.1,1.7-0.4,2.5
		c-0.3,0.8-0.7,1.6-1.3,2.2c-0.6,0.6-1.4,1.1-2.3,1.5c-0.9,0.4-2,0.6-3.2,0.6h-16.3c-4.3,0-8.3-0.8-12.1-2.5
		c-3.8-1.7-7.1-3.9-9.9-6.7c-2.8-2.8-5-6.1-6.6-9.9c-1.6-3.8-2.4-7.8-2.4-12.1c0-4.3,0.8-8.3,2.4-12.1c1.6-3.8,3.8-7.1,6.6-10
		c2.8-2.8,6.1-5.1,9.9-6.7c3.8-1.7,7.8-2.5,12.1-2.5s8.3,0.8,12.1,2.5c3.8,1.7,7,4,9.8,6.8c2.8,2.9,5,6.3,6.6,10.2L-106.5,62.6z
		 M-121.3,55.7c-0.6-1.7-1.5-3.3-2.5-4.7c-1.1-1.4-2.3-2.6-3.7-3.6c-1.4-1-3-1.8-4.6-2.3c-1.7-0.6-3.5-0.8-5.3-0.8
		c-1.8,0-3.6,0.3-5.3,0.8c-1.7,0.6-3.2,1.3-4.6,2.3c-1.4,1-2.7,2.2-3.8,3.6c-1.1,1.4-2,3-2.6,4.7H-121.3z"/>
	<path class="st1" d="M-44.6,86.5c0,0.8-0.1,1.7-0.4,2.5c-0.3,0.8-0.7,1.6-1.3,2.2c-0.6,0.6-1.4,1.1-2.3,1.5c-0.9,0.4-2,0.6-3.2,0.6
		h-39.6c-1,0-1.9-0.2-2.7-0.6c-0.8-0.4-1.6-0.9-2.2-1.5c-0.6-0.6-1.1-1.4-1.4-2.2c-0.3-0.8-0.5-1.7-0.5-2.7c0-0.7,0.1-1.4,0.3-2.1
		c0.2-0.7,0.6-1.4,1.1-2l29.7-36.9h-23.2c-1.2,0-2.3-0.2-3.2-0.6c-0.9-0.4-1.7-0.9-2.3-1.5c-0.6-0.6-1.1-1.3-1.4-2.2
		c-0.3-0.8-0.5-1.6-0.5-2.5c0-0.8,0.2-1.7,0.5-2.5c0.3-0.8,0.8-1.5,1.4-2.2c0.6-0.6,1.3-1.1,2.3-1.5c0.9-0.4,2-0.6,3.2-0.6H-53
		c1,0,1.9,0.2,2.8,0.6c0.8,0.4,1.5,0.9,2.1,1.5c0.6,0.7,1,1.4,1.3,2.3c0.3,0.8,0.5,1.7,0.5,2.7c0,0.7-0.1,1.3-0.3,2
		c-0.2,0.7-0.6,1.4-1,2l-29.7,36.9h25.5c1.2,0,2.3,0.2,3.2,0.6c0.9,0.4,1.7,0.9,2.3,1.5c0.6,0.7,1,1.4,1.3,2.2L-44.6,86.5z"/>
	<path class="st1" d="M5.2,38.4c0,0.8-0.1,1.7-0.4,2.5c-0.3,0.8-0.7,1.5-1.3,2.2c-0.6,0.7-1.4,1.2-2.3,1.5c-0.9,0.4-2,0.6-3.2,0.6
		h-14v20.9c0,1.9,0.4,3.6,1.1,5.3c0.7,1.7,1.7,3.1,3,4.4c1.2,1.2,2.6,2.1,4.3,2.8c1.6,0.7,3.4,1.1,5.2,1.1c1.2,0,2.3,0.2,3.2,0.6
		c0.9,0.4,1.6,0.9,2.3,1.5c0.6,0.7,1,1.4,1.3,2.2c0.3,0.8,0.4,1.6,0.4,2.5c0,0.8-0.1,1.7-0.4,2.5c-0.3,0.8-0.7,1.6-1.3,2.2
		c-0.6,0.6-1.4,1.1-2.3,1.5c-0.9,0.4-2,0.6-3.2,0.6c-3.8,0-7.3-0.7-10.5-2.2c-3.3-1.4-6.1-3.3-8.6-5.7c-2.5-2.5-4.5-5.4-5.9-8.7
		c-1.4-3.3-2.2-6.8-2.2-10.6v-51c0-1.2,0.2-2.3,0.6-3.2c0.4-0.9,0.9-1.7,1.5-2.3c0.6-0.6,1.4-1,2.2-1.4c0.8-0.3,1.6-0.4,2.5-0.4
		s1.7,0.1,2.5,0.4c0.8,0.3,1.5,0.8,2.2,1.4c0.6,0.6,1.1,1.4,1.5,2.3c0.4,0.9,0.6,2,0.6,3.2v16.5h14c1.2,0,2.3,0.2,3.2,0.6
		c0.9,0.4,1.7,0.9,2.3,1.5c0.6,0.7,1,1.4,1.3,2.2L5.2,38.4z"/>
</g>
<g class="st0">
	<path class="st1" d="M162.2,75.3c0,2.8-0.5,5.3-1.6,7.6c-1.1,2.3-2.5,4.3-4.3,6c-1.8,1.7-4,3-6.4,4c-2.4,1-5,1.4-7.7,1.4h-16
		c-1.2,0-2.2-0.2-3.1-0.6c-0.9-0.4-1.7-0.9-2.3-1.5c-0.6-0.6-1.1-1.4-1.4-2.2c-0.3-0.8-0.5-1.7-0.5-2.5c0-0.8,0.1-1.7,0.4-2.5
		c0.3-0.8,0.8-1.5,1.4-2.1c0.6-0.6,1.3-1.1,2.3-1.5c0.9-0.4,1.9-0.6,3.1-0.6h16c0.8,0,1.6-0.1,2.4-0.3c0.7-0.2,1.4-0.6,2-1
		c0.6-0.4,1.1-1,1.4-1.7c0.3-0.7,0.5-1.4,0.5-2.3c0-0.8-0.2-1.6-0.5-2.4c-0.4-0.8-1-1.3-1.8-1.6L130.7,65c-1.7-0.7-3.1-1.6-4.5-2.7
		c-1.3-1-2.4-2.2-3.4-3.5c-1-1.3-1.7-2.8-2.2-4.4c-0.5-1.6-0.8-3.3-0.8-5c0-2.5,0.5-4.7,1.5-6.8c1-2,2.3-3.8,4-5.2
		c1.7-1.5,3.6-2.6,5.7-3.5c2.2-0.8,4.5-1.2,6.8-1.2h14.2c1.2,0,2.2,0.2,3.1,0.6c0.9,0.4,1.6,0.9,2.2,1.5c0.6,0.7,1,1.4,1.4,2.2
		c0.3,0.8,0.5,1.7,0.5,2.6c0,0.8-0.1,1.7-0.4,2.4c-0.3,0.8-0.7,1.5-1.3,2.2c-0.6,0.6-1.4,1.1-2.3,1.5c-0.9,0.4-2,0.6-3.2,0.6H138
		c-0.4,0-0.9,0.1-1.4,0.2c-0.6,0.1-1,0.4-1.5,0.6c-0.5,0.3-0.9,0.6-1.2,0.9c-0.3,0.4-0.4,0.9-0.4,1.4c0,0.7,0.2,1.3,0.6,1.8
		c0.4,0.5,1,0.9,1.7,1.2l15.6,6.4c1.7,0.7,3.2,1.6,4.5,2.7c1.3,1.2,2.5,2.5,3.4,3.9c0.9,1.5,1.6,3.1,2.2,4.7L162.2,75.3z"/>
	<path class="st1" d="M195.2,19.7c0,1.3-0.2,2.4-0.7,3.5c-0.5,1.1-1.1,2.1-1.9,2.9c-0.8,0.8-1.7,1.5-2.8,2c-1.1,0.5-2.3,0.7-3.5,0.7
		c-1.3,0-2.4-0.2-3.5-0.7c-1.1-0.5-2.1-1.1-2.9-2c-0.8-0.8-1.5-1.8-1.9-2.9c-0.5-1.1-0.7-2.2-0.7-3.5c0-1.3,0.2-2.4,0.7-3.5
		c0.5-1.1,1.1-2,1.9-2.8c0.8-0.8,1.8-1.5,2.9-1.9c1.1-0.5,2.3-0.7,3.5-0.7c1.3,0,2.4,0.2,3.5,0.7c1.1,0.5,2,1.1,2.8,1.9
		c0.8,0.8,1.5,1.7,1.9,2.8L195.2,19.7z M192.9,87.5c0,1.2-0.2,2.3-0.6,3.1c-0.4,0.9-0.9,1.7-1.5,2.3c-0.6,0.6-1.3,1.1-2.2,1.4
		s-1.6,0.4-2.5,0.4c-0.8,0-1.7-0.1-2.5-0.4c-0.8-0.3-1.6-0.8-2.2-1.4c-0.6-0.6-1.1-1.3-1.5-2.3c-0.4-0.9-0.6-1.9-0.6-3.1v-48
		c0-1.2,0.2-2.3,0.6-3.2c0.4-0.9,0.9-1.6,1.5-2.3c0.6-0.6,1.4-1,2.2-1.3c0.8-0.3,1.6-0.4,2.5-0.4c0.8,0,1.7,0.1,2.5,0.4
		c0.8,0.3,1.5,0.7,2.2,1.3c0.6,0.6,1.1,1.4,1.5,2.3c0.4,0.9,0.6,2,0.6,3.2V87.5z"/>
</g>
<g class="st0">
	<path class="st1" d="M-245.8,143v-21.8h3.1v19.1h11.8v2.7H-245.8z"/>
	<path class="st1" d="M-223.6,143v-21.8h3.1V143H-223.6z"/>
	<path class="st1" d="M-204.4,143l-9.6-21.8h3.4l8.8,20.1h-1.9l8.9-20.1h3.1l-9.6,21.8H-204.4z"/>
	<path class="st1" d="M-185.2,143v-21.8h15.4v2.7h-12.3v16.4h12.7v2.7H-185.2z M-182.4,133.2v-2.6h11.2v2.6H-182.4z"/>
	<path class="st1" d="M-148.6,143v-21.8h15.4v2.7h-12.3v16.4h12.7v2.7H-148.6z M-145.7,133.2v-2.6h11.2v2.6H-145.7z"/>
	<path class="st1" d="M-124,143v-21.8h2.6l14.4,17.9h-1.3v-17.9h3.1V143h-2.6l-14.4-17.9h1.3V143H-124z"/>
	<path class="st1" d="M-90.7,143v-19.1h-7.5v-2.7h18v2.7h-7.5V143H-90.7z"/>
	<path class="st1" d="M-73,143v-21.8h15.4v2.7h-12.3v16.4h12.7v2.7H-73z M-70.2,133.2v-2.6H-59v2.6H-70.2z"/>
	<path class="st1" d="M-48.4,143v-21.8h8.5c2.8,0,5,0.7,6.7,2c1.6,1.3,2.4,3.2,2.4,5.6c0,1.6-0.4,2.9-1.1,4.1
		c-0.7,1.1-1.8,2-3.1,2.6c-1.3,0.6-3,0.9-4.9,0.9h-6.8l1.4-1.4v8.1H-48.4z M-45.3,135.2l-1.4-1.5h6.7c2,0,3.5-0.4,4.5-1.3
		c1-0.9,1.5-2.1,1.5-3.6c0-1.6-0.5-2.8-1.5-3.6c-1-0.9-2.5-1.3-4.5-1.3h-6.7l1.4-1.6V135.2z M-33.9,143l-5.5-7.9h3.3l5.6,7.9H-33.9z
		"/>
	<path class="st1" d="M-18.1,143v-19.1h-7.5v-2.7h18v2.7H-15V143H-18.1z"/>
	<path class="st1" d="M-4.8,143l9.9-21.8h3.1l9.9,21.8h-3.3l-8.8-20h1.2l-8.8,20H-4.8z M-0.6,137.5l0.8-2.5h12.3l0.9,2.5H-0.6z"/>
	<path class="st1" d="M25,143v-21.8h3.1V143H25z"/>
	<path class="st1" d="M38.4,143v-21.8H41l14.4,17.9H54v-17.9h3.1V143h-2.6l-14.4-17.9h1.3V143H38.4z"/>
	<path class="st1" d="M67.4,143v-21.8H70l9.8,16.5h-1.4l9.6-16.5h2.6l0,21.8h-3l0-17.1h0.7l-8.6,14.4h-1.4l-8.6-14.4h0.8V143H67.4z"
		/>
	<path class="st1" d="M100.9,143v-21.8h15.4v2.7H104v16.4h12.7v2.7H100.9z M103.7,133.2v-2.6h11.2v2.6H103.7z"/>
	<path class="st1" d="M125.4,143v-21.8h2.6l14.4,17.9H141v-17.9h3.1V143h-2.6l-14.4-17.9h1.3V143H125.4z"/>
	<path class="st1" d="M158.7,143v-19.1h-7.5v-2.7h18v2.7h-7.5V143H158.7z"/>
</g>
<path class="st2" d="M62.3,12.4V82L22,93.6c0,0-4.4,1.2-5.8-1.3s-1.6-3.6,1.1-7.7C19.9,80.4,62.3,12.4,62.3,12.4z"/>
<path class="st3" d="M62.3,12.4V82l40.4,11.6c0,0,4.4,1.2,5.8-1.3c1.5-2.5,1.6-3.6-1.1-7.7C104.8,80.4,62.3,12.4,62.3,12.4z"/>
</svg>
